<svg width="1200" height="630" viewBox="0 0 1200 630" xmlns="http://www.w3.org/2000/svg">
  <defs>
    <radialGradient id="tealGlow" cx="20%" cy="-10%" r="70%">
      <stop offset="0%" stop-color="#45e0c4" stop-opacity="0.18"/>
      <stop offset="100%" stop-color="#45e0c4" stop-opacity="0"/>
    </radialGradient>
    <radialGradient id="pinkGlow" cx="82%" cy="112%" r="70%">
      <stop offset="0%" stop-color="#ff4fa0" stop-opacity="0.16"/>
      <stop offset="100%" stop-color="#ff4fa0" stop-opacity="0"/>
    </radialGradient>
    <linearGradient id="barGrad" x1="0%" y1="0%" x2="100%" y2="0%">
      <stop offset="0%" stop-color="#45e0c4"/>
      <stop offset="100%" stop-color="#ff4fa0"/>
    </linearGradient>
    <linearGradient id="waveGradA" x1="0%" y1="0%" x2="100%" y2="0%">
      <stop offset="0%" stop-color="#45e0c4" stop-opacity="0.22"/>
      <stop offset="100%" stop-color="#ff4fa0" stop-opacity="0.10"/>
    </linearGradient>
    <linearGradient id="waveGradB" x1="0%" y1="0%" x2="100%" y2="0%">
      <stop offset="0%" stop-color="#ff4fa0" stop-opacity="0.14"/>
      <stop offset="100%" stop-color="#45e0c4" stop-opacity="0.08"/>
    </linearGradient>
    <pattern id="stripes" width="10" height="10" patternTransform="rotate(90)" patternUnits="userSpaceOnUse">
      <rect width="10" height="2" fill="#45e0c4" opacity="0.06"/>
    </pattern>
    <filter id="glow" x="-50%" y="-50%" width="200%" height="200%">
      <feGaussianBlur stdDeviation="10" result="blur"/>
      <feMerge>
        <feMergeNode in="blur"/>
        <feMergeNode in="SourceGraphic"/>
      </feMerge>
    </filter>
  </defs>

  <rect x="0" y="0" width="1200" height="630" fill="#0d0c1a"/>
  <rect x="0" y="0" width="1200" height="630" fill="url(#tealGlow)"/>
  <rect x="0" y="0" width="1200" height="630" fill="url(#pinkGlow)"/>
  <rect x="0" y="0" width="1200" height="320" fill="url(#stripes)"/>

  <g opacity="0.14" stroke="#ff4fa0" stroke-width="2" fill="none">
    <circle cx="1050" cy="120" r="70"/>
    <circle cx="1025" cy="105" r="6" fill="#ff4fa0" stroke="none"/>
    <circle cx="1075" cy="105" r="6" fill="#ff4fa0" stroke="none"/>
    <path d="M1010,145 Q1050,175 1090,145"/>
  </g>

  <line x1="0" y1="486" x2="1200" y2="486" stroke="#322e52" stroke-width="1" stroke-dasharray="6 8" opacity="0.7"/>

  <path d="M0,560 C150,535 300,585 450,558 C600,532 750,588 900,556 C1050,530 1150,570 1200,552 L1200,630 L0,630 Z" fill="url(#waveGradA)"/>
  <path d="M0,585 C160,565 320,605 480,582 C640,560 800,608 960,580 C1080,562 1150,590 1200,578 L1200,630 L0,630 Z" fill="url(#waveGradB)"/>

  <rect x="0" y="0" width="1200" height="3" fill="url(#barGrad)" opacity="0.55"/>
  <rect x="0" y="627" width="1200" height="3" fill="url(#barGrad)" opacity="0.55"/>

  <text x="600" y="150" text-anchor="middle" font-family="sans-serif" font-size="22" letter-spacing="8" fill="#ff4fa0" opacity="0.85">TODAY'S SONG BLOG</text>

  <text x="600" y="300" text-anchor="middle" font-family="sans-serif" font-size="132" font-weight="700" fill="#45e0c4" opacity="0.35" filter="url(#glow)">へのへのんのの</text>
  <text x="600" y="300" text-anchor="middle" font-family="sans-serif" font-size="132" font-weight="700" fill="#e7e2f4" letter-spacing="6">へのへのんのの</text>

  <rect x="500" y="335" width="200" height="3" fill="url(#barGrad)" opacity="0.8"/>

  <text x="600" y="392" text-anchor="middle" font-family="sans-serif" font-size="40" letter-spacing="4" fill="#45e0c4">NUMB LIFE</text>

  <text x="600" y="434" text-anchor="middle" font-family="sans-serif" font-size="24" fill="#ff4fa0" opacity="0.85">SO87 feat. 初音ミク V4 (English)</text>
</svg>
