<svg width="1200" height="630" viewBox="0 0 1200 630" xmlns="http://www.w3.org/2000/svg">
<defs>
  <linearGradient id="gDawn" x1="0" y1="0" x2="0" y2="1">
    <stop offset="0%"   stop-color="#09090f" stop-opacity="0"/>
    <stop offset="55%"  stop-color="#09090f" stop-opacity="0"/>
    <stop offset="100%" stop-color="#ff5a28" stop-opacity="0.24"/>
  </linearGradient>
  <pattern id="pScan" x="0" y="0" width="1200" height="4" patternUnits="userSpaceOnUse">
    <rect x="0" y="3" width="1200" height="1" fill="#ff3c5a" fill-opacity="0.02"/>
  </pattern>
  <pattern id="pGrid" x="0" y="0" width="7" height="630" patternUnits="userSpaceOnUse">
    <rect x="6" y="0" width="1" height="630" fill="#ff3c5a" fill-opacity="0.025"/>
  </pattern>
</defs>

<rect width="1200" height="630" fill="#09090f"/>
<rect width="1200" height="630" fill="url(#pScan)"/>
<rect width="1200" height="630" fill="url(#pGrid)"/>
<rect width="1200" height="630" fill="url(#gDawn)"/>

<rect x="0" y="0" width="1200" height="3" fill="#ff3c5a"/>
<rect x="0" y="627" width="1200" height="3" fill="#ff3c5a"/>
<rect x="70" y="3" width="2" height="624" fill="#ff3c5a" fill-opacity="0.36"/>
<rect x="1128" y="3" width="2" height="624" fill="#ff3c5a" fill-opacity="0.36"/>

<polyline points="88,68 88,48 110,48" stroke="#ff3c5a" stroke-opacity="0.62" stroke-width="1.5" fill="none"/>
<polyline points="1112,68 1112,48 1090,48" stroke="#ff3c5a" stroke-opacity="0.62" stroke-width="1.5" fill="none"/>
<polyline points="88,562 88,582 110,582" stroke="#ff3c5a" stroke-opacity="0.62" stroke-width="1.5" fill="none"/>
<polyline points="1112,562 1112,582 1090,582" stroke="#ff3c5a" stroke-opacity="0.62" stroke-width="1.5" fill="none"/>

<rect x="232" y="170" width="76" height="2"   fill="#ff3c5a" fill-opacity="0.50"/>
<rect x="850" y="170" width="46" height="2"   fill="#00d2ff" fill-opacity="0.42"/>
<rect x="128" y="352" width="36" height="1.5" fill="#ff3c5a" fill-opacity="0.30"/>
<rect x="958" y="207" width="54" height="1.5" fill="#00d2ff" fill-opacity="0.28"/>
<rect x="312" y="430" width="22" height="1.5" fill="#ff3c5a" fill-opacity="0.24"/>
<rect x="812" y="400" width="26" height="1.5" fill="#00d2ff" fill-opacity="0.22"/>
<rect x="668" y="147" width="14" height="2"   fill="#ff3c5a" fill-opacity="0.36"/>
<rect x="424" y="488" width="36" height="1.5" fill="#ff3c5a" fill-opacity="0.18"/>
<rect x="722" y="508" width="20" height="1.5" fill="#00d2ff" fill-opacity="0.16"/>

<text x="604" y="282" text-anchor="middle" font-family="sans-serif" font-size="118" font-weight="900" fill="#ff3c5a" fill-opacity="0.65" letter-spacing="5">へのへのんのの</text>
<text x="596" y="280" text-anchor="middle" font-family="sans-serif" font-size="118" font-weight="900" fill="#00d2ff" fill-opacity="0.46" letter-spacing="5">へのへのんのの</text>
<text x="600" y="281" text-anchor="middle" font-family="sans-serif" font-size="118" font-weight="900" fill="#e8eaf2" letter-spacing="5">へのへのんのの</text>

<rect x="336" y="306" width="528" height="2.5" fill="#ff3c5a"/>
<rect x="556" y="306" width="88"  height="2.5" fill="#ff8c42"/>

<text x="600" y="366" text-anchor="middle" font-family="sans-serif" font-size="36" font-weight="700" fill="#ff3c5a" letter-spacing="1"><tspan>&#x25B6;</tspan><tspan dx="10">Don't Let Me Down</tspan></text>

<text x="600" y="404" text-anchor="middle" font-family="sans-serif" font-size="18" fill="#e8eaf2" fill-opacity="0.44" letter-spacing="1">d0tc0mmie feat. Synthesizer V AI Megpoid</text>

<text x="600" y="558" text-anchor="middle" font-family="monospace" font-size="13" fill="#ff8c42" fill-opacity="0.60" letter-spacing="4">2026.06.28</text>
</svg>
